<svg width="400" height="50" viewBox="0 0 400 50" fill="none" xmlns="http://www.w3.org/2000/svg">
<path d="M37.5 30.5H10.9V23.9H45.2C44.3 21.1 41.4 18.5 36.3 18.5H11.4C5.7 18.5 2.4 20.6 2.4 25.2V30.1C2.4 34.1 5.8 36.4 10.8 36.4H37.7V43.4H1.5C2.4 47.2 5.3 49.2 10.5 49.2H37.6C43.3 49.2 46.1 47 46.1 42.3V37.4C46.1 33.1 42.8 30.8 37.5 30.5Z" fill="white"/>
<path d="M91.8 18.6001H59V49.3001H68.3V37.5001H92.5C99.2 37.5001 102.9 35.2001 102.9 29.8001V26.4001C102.8 21.4001 98.6 18.6001 91.8 18.6001ZM94.8 28.4001C94.8 30.6001 94.4 31.8001 90.8 31.8001H68.3L68.4 23.8001H90.4C94.4 23.8001 94.9 25.0001 94.9 27.1001V28.4001H94.8Z" fill="white"/>
<path d="M129.9 17.3L124.3 24.2001L133.8 37.3H114L109.1 42.5H137.7L142.6 49.3H153.6L129.9 17.3Z" fill="white"/>
<path d="M171.4 23.9H206.2C205.3 20.3 201.8 18.5 196.8 18.5H170.8C166.3 18.5 162 20.3 162 25.2V42.4C162 47.3 166.3 49.1 170.8 49.1H197.1C203.1 49.1 205.2 47.4 206.2 43.3H171.4V23.9Z" fill="white"/>
<path d="M228.3 43.5001V34.1001H247V28.9001H218.9V49.3001H260.4V43.5001H228.3Z" fill="white"/>
<path d="M261.8 18.6001H219.9V24.0001H261.8V18.6001Z" fill="white"/>
<path d="M287.6 18.6001H273L290.2 31.2001C292.7 29.5001 295.6 27.7001 298.2 26.2001L287.6 18.6001Z" fill="white"/>
<path d="M308.8 34.3C306.3 36 303.8 37.9001 301.4 39.7001L314.4 49.2001H329.1L308.8 34.3Z" fill="white"/>
<path d="M399 0.699951C319 5.29995 282 39.4999 273.7 47.5999L272 49.2H286.8C326.8 9.09995 384.3 1.99995 399 0.699951Z" fill="white"/>
</svg>
